<svg xmlns="http://www.w3.org/2000/svg" viewBox="0 0 500 500"><g id="freepik--Floor--inject-35"><ellipse id="freepik--floor--inject-35" cx="250" cy="359.5" rx="240.64" ry="118" style="fill:#f5f5f5"></ellipse></g><g id="freepik--Cloud--inject-35"><path id="freepik--cloud--inject-35" d="M386.44,59l6.95,4a7.22,7.22,0,0,1-.06-.92v-2c0-3.59,2.52-5,5.62-3.25a10.91,10.91,0,0,1,3.35,3.23c.51-4.51,4-6.19,8.34-3.71,4.64,2.68,8.4,9.2,8.4,14.56v3a7.93,7.93,0,0,1-.71,3.5l5.78,3.33a6.88,6.88,0,0,1,3.11,5.4c0,2-1.39,2.79-3.11,1.8L386.44,66.2a6.88,6.88,0,0,1-3.12-5.4C383.32,58.81,384.71,58,386.44,59Z" style="fill:#ebebeb"></path></g><g id="freepik--Shadows--inject-35"><ellipse id="freepik--Shadow--inject-35" cx="118.06" cy="394.37" rx="52.59" ry="29.85" style="fill:#e0e0e0"></ellipse><ellipse id="freepik--shadow--inject-35" cx="376.56" cy="400.1" rx="32.42" ry="18.4" style="fill:#e0e0e0"></ellipse></g><g id="freepik--Plants--inject-35"><g id="freepik--plants--inject-35"><path d="M92.87,362.35a61.56,61.56,0,0,0-4.32-17.67c-3.78-9.09-11-18.22-19.16-19.88s-11.62,3.87-9.85,9.27c1.53,4.64,7.65,8.46,12.3,12.48s13.37,13.77,15.85,23.25l4.62.46Z" style="fill:#2ACA1C"></path><g style="opacity:0.15"><path d="M92.87,362.35a61.56,61.56,0,0,0-4.32-17.67c-3.78-9.09-11-18.22-19.16-19.88s-11.62,3.87-9.85,9.27c1.53,4.64,7.65,8.46,12.3,12.48s13.37,13.77,15.85,23.25l4.62.46Z"></path></g><path d="M89.76,366.66a.52.52,0,0,1-.52-.49c-1.07-23.86-24.53-37-24.77-37.13a.51.51,0,0,1-.2-.7.5.5,0,0,1,.69-.2c.25.13,24.21,13.55,25.3,38a.51.51,0,0,1-.49.54Z" style="fill:#fff"></path><path d="M90.92,393.51a10,10,0,0,1-6.71.74,13,13,0,0,1-4.86-2.33,16,16,0,0,1-3.51-4.13,17.07,17.07,0,0,0-2.19-2.93c-1.82-1.74-4.78-1.67-7.11-2.16a8.89,8.89,0,0,1-6.77-5.76c-.91-3-.58-6.62,2.17-8.57l-2.37-1.49a15.17,15.17,0,0,1-3-2.28A5.24,5.24,0,0,1,55,361.21,5,5,0,0,1,58,356.85a10.58,10.58,0,0,1,5.53-.61,24.44,24.44,0,0,1,5.54,1.25,4,4,0,0,0,1.55.34,4.09,4.09,0,0,0,1.88-.89c4-2.7,10.61-2.56,12.83,2.46.32.73.52,1.53.87,2.25,1.28,2.7,4.81,1.86,7.11,3.11A5.75,5.75,0,0,1,96,368.88c.53,2.94-.23,6.1-.82,9-.22,1.08-.74,2.06-1,3.12a28.62,28.62,0,0,0,0,4.72c-.06,2.61-.26,5.86-2.62,7.39A7.78,7.78,0,0,1,90.92,393.51Z" style="fill:#2ACA1C"></path><path d="M93.18,387.44A37.23,37.23,0,0,0,83.39,373a.41.41,0,0,0-.22-.21c-1.29-1.18-2.62-2.28-4-3.28a20,20,0,0,1,1.25-10.55.42.42,0,0,0-.21-.55.41.41,0,0,0-.55.2,20.68,20.68,0,0,0-1.43,10.21,63.5,63.5,0,0,0-18.29-9,.41.41,0,0,0-.5.29.41.41,0,0,0,.29.51,62,62,0,0,1,21.71,11.73c-6-1-13,1.95-13.35,2.08a.42.42,0,0,0-.22.55.41.41,0,0,0,.39.25.4.4,0,0,0,.15,0c.09,0,8.39-3.48,14.3-1.71a36.46,36.46,0,0,1,9.65,14.22.41.41,0,0,0,.4.27l.13,0A.41.41,0,0,0,93.18,387.44Z" style="fill:#fff"></path></g></g><g id="freepik--Dog--inject-35"><g id="freepik--dog--inject-35"><path d="M359.48,294.34c.61-2.66-1-5.37-4.36-7-3.74-1.77-10.22-3-14.15-.19-2.64,1.91-5.47,8.35-1.07,7.66s9.15-3.38,12.25-2.61c2.88.7,3,2.86,3,2.86Z" style="fill:#37474f"></path><path d="M339.34,305.8c.2.29.59.83.48,1.27s.32.59.92.47S341,306.28,339.34,305.8Z" style="fill:#263238"></path><path d="M339.82,307.07a10.79,10.79,0,0,1,2.09-.28l5.2,1.37a5.09,5.09,0,0,1-4.58,1.71c-3.14-.29-3.54-1.46-3.57-1.84S339.39,307,339.82,307.07Z" style="fill:#f28f8f"></path><path d="M359.32,334.9s-4.26,5.85-9,5.94-9.95-.23-12.11.66-2.56,4.44-4.37,4.86a3.19,3.19,0,0,1-4-2.32c-.72-2,.53-6,3.29-7.73s8.51-2.78,12.66-4.18,5.47-4.63,6.12-7.61C352.61,319.8,362.52,329.83,359.32,334.9Z" style="fill:#2ACA1C"></path><path d="M359.32,334.9s-4.26,5.85-9,5.94-9.95-.23-12.11.66-2.56,4.44-4.37,4.86a3.19,3.19,0,0,1-4-2.32c-.72-2,.53-6,3.29-7.73s8.51-2.78,12.66-4.18,5.47-4.63,6.12-7.61C352.61,319.8,362.52,329.83,359.32,334.9Z" style="opacity:0.45"></path><path d="M389.51,361.62c1.33,2.3,7.12,3.25,11.2.9s6.52-8.4,5.51-13.16-3.56-6.52-2.64-7.2,4.27,2.47,5.29,7.41,0,12.59-7.7,16.26c-6.75,3.24-9.57,1.5-11.66,6.17Z" style="fill:#37474f"></path><path d="M363.06,295.12c-5.36-3.1-9.22-2.22-12.2,0-1.81,1.36-2.72,2.88-5,3.39a11.76,11.76,0,0,1-3.07.34c-1.43,0-3.84,0-4.72,1.39a3.88,3.88,0,0,0-.51,1.92,6.57,6.57,0,0,0,.22,2.16,1.57,1.57,0,0,0,.46.76.87.87,0,0,0,.83.18,5.25,5.25,0,0,0,2.91,2.62,8.27,8.27,0,0,0,4.94.36,5.4,5.4,0,0,1-3.94,1.32,6.26,6.26,0,0,1-2.92-.7,1.42,1.42,0,0,1-.76-.82.83.83,0,0,1,.51-1,1.36,1.36,0,0,0-1.13.09.9.9,0,0,0-.45.74,2.23,2.23,0,0,0,.15.84,6.11,6.11,0,0,0,2.34,3.46,10.13,10.13,0,0,0,4.54,1,26.59,26.59,0,0,1,4.54,1.22,4.87,4.87,0,0,1,1.36.74,3.4,3.4,0,0,1,1.06,1.53,6.44,6.44,0,0,1,.16,1.95,18.33,18.33,0,0,1-.36,4.84c0,.21-.09.42-.14.63-1.15,5-4.56,11.31-.68,19.31s8.8,8.2,9.16,17.11-1.31,9.39-.88,14.42,6.34,9,7.58,10.55.81,2.57,1.2,6.73a25.72,25.72,0,0,1,0,6.36s-6,2-4.85,3.94,6.66,1.1,8.56.56,4.31-16.91,4.31-16.91a8.72,8.72,0,0,0,2.52,4.36,14.73,14.73,0,0,0,2.34,1.69c.78.45,1.83,1.06,2,4.39a48.6,48.6,0,0,1,0,7.17s-5.4,1.63-4.66,3.91,7.78,1.27,9.09.08,4.51-17.81,3.55-20.43-4.53-4.32-3.93-8.22,3.82-7.08,3-14c-.93-7.58-3.76-8.36-7.35-15.23s-2.92-13.38-4.33-17.27c-3-8.38-6-9.4-7.5-14.77-1.4-5.08-1.33-6.76-1.05-11.84S366.56,297.14,363.06,295.12Z" style="fill:#2ACA1C"></path><path d="M363.06,295.12c-5.36-3.1-9.22-2.22-12.2,0-1.81,1.36-2.72,2.88-5,3.39a11.76,11.76,0,0,1-3.07.34c-1.43,0-3.84,0-4.72,1.39a3.88,3.88,0,0,0-.51,1.92,6.57,6.57,0,0,0,.22,2.16,1.57,1.57,0,0,0,.46.76.87.87,0,0,0,.83.18,5.25,5.25,0,0,0,2.91,2.62,8.27,8.27,0,0,0,4.94.36,5.4,5.4,0,0,1-3.94,1.32,6.26,6.26,0,0,1-2.92-.7,1.42,1.42,0,0,1-.76-.82.83.83,0,0,1,.51-1,1.36,1.36,0,0,0-1.13.09.9.9,0,0,0-.45.74,2.23,2.23,0,0,0,.15.84,6.11,6.11,0,0,0,2.34,3.46,10.13,10.13,0,0,0,4.54,1,26.59,26.59,0,0,1,4.54,1.22,4.87,4.87,0,0,1,1.36.74,3.4,3.4,0,0,1,1.06,1.53,6.44,6.44,0,0,1,.16,1.95,18.33,18.33,0,0,1-.36,4.84c0,.21-.09.42-.14.63-1.15,5-4.56,11.31-.68,19.31s8.8,8.2,9.16,17.11-1.31,9.39-.88,14.42,6.34,9,7.58,10.55.81,2.57,1.2,6.73a25.72,25.72,0,0,1,0,6.36s-6,2-4.85,3.94,6.66,1.1,8.56.56,4.31-16.91,4.31-16.91a8.72,8.72,0,0,0,2.52,4.36,14.73,14.73,0,0,0,2.34,1.69c.78.45,1.83,1.06,2,4.39a48.6,48.6,0,0,1,0,7.17s-5.4,1.63-4.66,3.91,7.78,1.27,9.09.08,4.51-17.81,3.55-20.43-4.53-4.32-3.93-8.22,3.82-7.08,3-14c-.93-7.58-3.76-8.36-7.35-15.23s-2.92-13.38-4.33-17.27c-3-8.38-6-9.4-7.5-14.77-1.4-5.08-1.33-6.76-1.05-11.84S366.56,297.14,363.06,295.12Z" style="opacity:0.30000000000000004"></path><path d="M375.45,375.65a8.28,8.28,0,0,0-1,3.76,18.67,18.67,0,0,1-6.6-2.26,7.91,7.91,0,0,1-4.23-6.11,7.61,7.61,0,0,0,2.74,6.21,43.63,43.63,0,0,0,3.73,2.48,9.64,9.64,0,0,1,4.61,6.9l0,.17c.33,2-.39,9.85-.39,9.85h0c1.08-4.77,1.91-10.44,1.91-10.44A17,17,0,0,1,375.45,375.65Z" style="opacity:0.25"></path><path d="M375.77,366.32c-1.65-3.93-7.25-10.86-9.09-14.75s-1.83-14-1.82-17.18-1.95-5.8-4.07-8-6.87-3.57-9.58.25h0c-1.37,4.58-3.27,10.1,0,16.83,3,6.19,6.63,7.71,8.28,12.22a39.5,39.5,0,0,1,3.19,7.9c.71,2.64.56,7,1.41,9.16,1.55,3.91,3.46,4.09,7.18,6.43s3.83,3,3.83,3a15.19,15.19,0,0,1,.35-6.48C376.4,371.89,377.41,370.25,375.77,366.32Z" style="fill:#e0e0e0"></path><path d="M363.29,348.29c-2.85.16-6.22.12-8.72.39a26,26,0,0,1-3.36-5.23,17.3,17.3,0,0,1-1.81-7.66,31.36,31.36,0,0,1,1.81-9.17c2.72-3.83,7.45-2.47,9.58-.25s4.08,4.83,4.07,8a88.63,88.63,0,0,0,.77,13.32A6.86,6.86,0,0,1,363.29,348.29Z" style="fill:#f5f5f5"></path><path d="M375.59,375.46a18.61,18.61,0,0,0-.36,7c-.08-.17-.74-1.3-4-3.32-3.73-2.33-5.64-2.51-7.19-6.42-.85-2.15-.7-6.51-1.41-9.16a40.45,40.45,0,0,0-3.18-7.9,17,17,0,0,0-3.62-5.45,54.84,54.84,0,0,1,6.28-.45,8.27,8.27,0,0,0,3.71-.75,12.38,12.38,0,0,0,.81,2.55c1.84,3.89,7.44,10.82,9.08,14.75S376.55,371.71,375.59,375.46Z" style="fill:#f5f5f5"></path><path d="M372.06,342.07s-4.05,6-8.77,6.23c-3,.15-6.19.15-8.67.38a11.56,11.56,0,0,0-3.41.68c-2.13,1-2.41,4.52-4.21,5a3.19,3.19,0,0,1-4.1-2.18c-.78-2,.33-6,3-7.83s8.41-3.07,12.51-4.6,5.32-4.81,5.87-7.81C364.86,327.19,375.1,336.9,372.06,342.07Z" style="fill:#2ACA1C"></path><path d="M372.06,342.07s-4.05,6-8.77,6.23c-3,.15-6.19.15-8.67.38a11.56,11.56,0,0,0-3.41.68c-2.13,1-2.41,4.52-4.21,5a3.19,3.19,0,0,1-4.1-2.18c-.78-2,.33-6,3-7.83s8.41-3.07,12.51-4.6,5.32-4.81,5.87-7.81C364.86,327.19,375.1,336.9,372.06,342.07Z" style="opacity:0.30000000000000004"></path><path d="M384.82,359.6a1.71,1.71,0,0,0-1,.26,1.84,1.84,0,0,0-.74,1.32,3.48,3.48,0,0,0,.22,1.53c.38,1.13,1,2.14,1.43,3.26a6.15,6.15,0,0,1,.34,1.63,2.26,2.26,0,0,0,.29,1.47,1.38,1.38,0,0,0,1.49.42,2.6,2.6,0,0,0,1.43-1.71c.87-2.41.53-5.68-1.62-7.37a3.88,3.88,0,0,0-1.35-.74A2.08,2.08,0,0,0,384.82,359.6Z" style="fill:#2ACA1C;opacity:0.5"></path><path d="M383.1,367.65a1.29,1.29,0,0,0,.18-.72,2.53,2.53,0,0,0-.83-1.95,1.17,1.17,0,0,0-1.76,0,1,1,0,0,0-.22.46,1.59,1.59,0,0,0,.54,1.32c.45.47,1.14,1.75,1.88,1.14A.72.72,0,0,0,383.1,367.65Z" style="fill:#2ACA1C;opacity:0.5"></path><path d="M372.05,342.1a14.8,14.8,0,0,1-3.22,4.81,12.46,12.46,0,0,1-3,2.11c-.08-.41-.17-.84-.24-1.3C369.09,346.26,371.78,342.47,372.05,342.1Z" style="opacity:0.25"></path><path d="M352.38,317.58c1,2.51,7.71,2.61,11,1.79,2.66-.66,5.88-1.82,6.81-5.14a4.15,4.15,0,0,1,.73,3c-.44,1.83-2.67,3.79-6.26,4.86-3.18.94-9.83,1-12.22-1.32C352.4,320.78,351.09,318.82,352.38,317.58Z" style="fill:#2ACA1C"></path><path d="M339,303a3.71,3.71,0,0,0,3.26-.62,1.67,1.67,0,0,0,.06-2.39,5,5,0,0,0-2.52-1.24,2.12,2.12,0,0,0-1.87,1.18C337.79,300.94,338,302.46,339,303Z" style="fill:#263238"></path><path d="M349.81,297.72a1.28,1.28,0,1,0-1.72.57A1.28,1.28,0,0,0,349.81,297.72Z"></path><path d="M357.88,301.13a1.45,1.45,0,1,0-2,.65A1.45,1.45,0,0,0,357.88,301.13Z"></path><path d="M338.25,305.08a.87.87,0,0,0,.83.18,5,5,0,0,1,0-1.9,4.71,4.71,0,0,0-.24,1.58c0,.16-.31.29-.72,0C338.17,305,338.2,305,338.25,305.08Z" style="fill:#37474f"></path><path d="M365.88,349c-.09-.41-.18-.85-.25-1.3a6.88,6.88,0,0,1-2.34.58c-2.86.15-6.22.12-8.71.38.44.54.88,1.05,1.3,1.54h0a55.09,55.09,0,0,1,6.28-.45A8.49,8.49,0,0,0,365.88,349Z" style="fill:#e0e0e0"></path><path d="M364.43,302.59a6.64,6.64,0,0,1,5.22-.85s-1.26-2.55-3.07-2.45S363.64,301.67,364.43,302.59Z"></path><path d="M363.51,302.05a3.47,3.47,0,0,1,.3-2.52c.91-1.48,4.21-2.64,5.9-2.55s8.59.66,10.91,8c1.73,5.44.89,8.41-2.68,10.46-5,2.9-4.71-3.59-5.91-7.22-2-6-3.77-7.71-5.23-7.86-2.46.79-2.37,2.25-2.37,2.25S363.9,302.82,363.51,302.05Z" style="fill:#37474f"></path><path d="M346.93,308.24a5.4,5.4,0,0,1-3.94,1.32,6.26,6.26,0,0,1-2.92-.7,1.42,1.42,0,0,1-.76-.82.83.83,0,0,1,.51-1,1.36,1.36,0,0,0-1.13.09.88.88,0,0,0-.45.74,2.39,2.39,0,0,0,.12.74,5.2,5.2,0,0,0,3.52,1.53C345.66,310.63,346.93,308.24,346.93,308.24Z" style="opacity:0.25"></path></g></g><g id="freepik--Character--inject-35"><g id="freepik--character--inject-35"><path d="M141.34,201.09c5.24,8.85,10.28,16.55,13.82,20.23,6.71,3.13,22.5,7.93,28.67,8.74a4.61,4.61,0,0,0,3.1-.73c2.43-1.6,4.31-1.85,6.87-2.74,2-.69,2.85-1.65,3.23-1.29a2.29,2.29,0,0,1-.21,3.18,16.37,16.37,0,0,1-3.17,2.37A18.8,18.8,0,0,0,202,231c5.34-1.41,7.87,1.16,4.25,7-1.29,2.08-6.39,5.4-16.72,4.51a92.18,92.18,0,0,1-11-1.3c-9.91-2.12-20.93-4.17-27.7-6.19a17.38,17.38,0,0,1-6.57-4.56c-11.4-13-15.17-22.23-20.16-30.64l.43-13.74C132.64,185.8,137,193.68,141.34,201.09Z" style="fill:#ffa8a7"></path><path d="M123.18,185.8a13,13,0,0,1,12.34,5.28c5.55,7.1,15.35,24.14,15.35,24.14s-3.22,8.54-11.87,9.94l-13.9-18.77S118.52,193.39,123.18,185.8Z" style="fill:#455a64"></path><rect x="93.12" y="377.3" width="9.06" height="16.16" style="fill:#ffa8a7"></rect><polygon points="124.54 376.43 133.6 376.76 134.05 359.66 124.54 359.33 124.54 376.43" style="fill:#ffa8a7"></polygon><path d="M91.84,237.4c0,9,1.33,81.55,1.33,81.55-.21,2.59-2.54,7.37-2,17.33.69,13.54,1.6,49.1,1.6,49.1a11.52,11.52,0,0,0,10.09.2s7.35-49.83,9-63.24c1.42-11.7,5-50.53,5-50.53l4.91,45.82a55.76,55.76,0,0,0-1.12,15c.42,6.2,3.34,38.51,3.34,38.51a12,12,0,0,0,10.46.83s5.16-48.65,5.26-54.34c.12-6.49-3-80.33-3-80.33Z" style="fill:#37474f"></path><path d="M102.18,388.8v-1.35c.87.39,2.89,8.4,6.48,11.81,2.86,2.72,6.76,5.85,7.75,8.88s-5.43,4.89-8.1,4.4c-3.1-.58-8.48-2.85-9.83-5s-2-5.22-3.08-6.77-3.63-3.27-4.22-5.06c-.33-1,.06-3.14.52-5s.87-3.5,1.42-3.34v1a7,7,0,0,0,4.53,1.6C99,390.12,102.19,389.85,102.18,388.8Z" style="fill:#263238"></path><path d="M133.7,373.85c.47,0,.85.71,1.89,1.88a19.66,19.66,0,0,0,5.33,4c3.39,1.77,10,4.49,13,5.89,1.87.88,1.78,3.23-.15,4.56s-6.58,2.3-12.17,1c-3-.71-7-3.64-9.52-3.48s-7.2.12-9.05-1.21-1.11-4.17-.59-6.61c.57-2.67,1.29-6.82,2.13-6.64v.92c1.09,1.72,6.71,2.42,9.11,1.15Z" style="fill:#263238"></path><path d="M116.84,271.81a33.15,33.15,0,0,0,12.62-7.53s-2.43,4.75-9.68,9.17l1.55,40.91Z" style="fill:#263238"></path><path d="M96.92,187.16s-7.45,1.72-7,15.23l1.57,21.52,0,32.3c6.66,7.55,36.2,7,46.32-.61,0,0-1.15-38.22-1.83-52.92-.49-10.46-2.89-15.72-13.17-16.88l-12.64.56Z" style="fill:#2ACA1C"></path><path d="M104.31,161.07c1.36,7.37,8.19,12.29,15.26,11s10.84-8,11.06-15.5c.42-13.69-8.89-12.47-16-11.17S103,153.71,104.31,161.07Z" style="fill:#263238"></path><path d="M98.77,167.67s3.73,9.25,4.81,10.68a4.23,4.23,0,0,0,2.79,1.58L105,173.2Z" style="fill:#263238"></path><path d="M98.71,153.45s-1.47-.1-2.54,2.52c-.92,2.24-.38,6.79,2.6,11.7l3.78-.24Z" style="fill:#263238"></path><path d="M97.7,155.64l-4.52.92a2.18,2.18,0,0,1,1.63-2.78A2.55,2.55,0,0,1,97.7,155.64Z" style="fill:#263238"></path><path d="M97,154.67l-4-2.61a2.19,2.19,0,0,1,3.16-.71A2.51,2.51,0,0,1,97,154.67Z" style="fill:#263238"></path><path d="M103.66,167.23c-.65.6-2-.69-3.08-1.52s-4.15-1.24-5,2.3,2.25,6.31,4.58,7c4.16,1.19,4.87-1.79,4.87-1.79l0,13.53c4,6.42,20.36,6.92,14.43-.69l0-5.13s4.65-.09,6.39-.71c2.89-1,4.32-3.82,4.61-7.35.46-5.66.21-10.12-3-20.5C124,141,111,143.23,104.82,149.12S103.66,167.23,103.66,167.23Z" style="fill:#ffa8a7"></path><path d="M117.65,152.28c-3.16.26-6.34.19-9.49.53a6.22,6.22,0,0,0-2,.47c-2.26,1.08-1.44,3.79-1.47,5.8,0,3.45.46,9.19-.79,9.45-.37.08-2.24-2.12-3.32-2.82-.71-.46-1-1.66-1.3-2.39-.49-1.34-.87-2.72-1.24-4.09-.3-1.17-.64-2.35-.86-3.53a17.23,17.23,0,0,1-.42-4,7.21,7.21,0,0,1,1.11-3.29c.07-.1.13-.21.19-.31a16.14,16.14,0,0,1,4.87-4.76,34.26,34.26,0,0,1,9-3.77,95.77,95.77,0,0,0,9.37-2.91,1,1,0,0,1,.55-.11c.29.05.47.35.58.63a4,4,0,0,1-.89,4.19c2.17-.22,4.43-1.79,6.39-2.73a1.4,1.4,0,0,1,1.06-.19,1.07,1.07,0,0,1,.52.53,3.92,3.92,0,0,1,.38,1.7,10.1,10.1,0,0,1-1,5.05,11.75,11.75,0,0,1-5.63,5.35A19,19,0,0,1,117.65,152.28Z" style="fill:#263238"></path><path d="M119.46,180.91s-6-.17-8.59-1a7.94,7.94,0,0,1-3.82-2.73,11.31,11.31,0,0,0,2.54,3.58c2.12,2,9.87,2,9.87,2Z" style="fill:#f28f8f"></path><path d="M117.56,162.32a1.36,1.36,0,1,1-1.6-1.2A1.41,1.41,0,0,1,117.56,162.32Z" style="fill:#263238"></path><path d="M115.41,158.11l-2.56,2.16a1.85,1.85,0,0,1,.24-2.48A1.59,1.59,0,0,1,115.41,158.11Z" style="fill:#263238"></path><path d="M118.2,172.68l3.26.63a1.6,1.6,0,0,1-1.87,1.43A1.83,1.83,0,0,1,118.2,172.68Z" style="fill:#f28f8f"></path><path d="M128,156.83l-3.36-.44a1.56,1.56,0,0,1,1.77-1.51A1.88,1.88,0,0,1,128,156.83Z" style="fill:#263238"></path><path d="M128.16,160.37a1.36,1.36,0,1,1-2.67.49,1.41,1.41,0,0,1,1.07-1.69A1.43,1.43,0,0,1,128.16,160.37Z" style="fill:#263238"></path><polygon points="121.67 161.15 123.54 169.5 128.07 167.44 121.67 161.15" style="fill:#f28f8f"></polygon><path d="M97.52,236.78c-3.65-6.9-7.8-22.39-9.88-30.2-2.94-11.11,1.82-18.09,7.23-18.37,3.39.51,14.52,41,14.52,41,1.23,1,18.17,9.57,23.61,11.73a4.27,4.27,0,0,0,3,0c2.62-1,4.39-.77,7-1,2-.2,3-.91,3.27-.49a2.29,2.29,0,0,1-1,3,16.29,16.29,0,0,1-3.49,1.52,21.38,21.38,0,0,0,6.75.92c5.23-.12,7.12,2.15,3.06,7.46-2.54,3.32-6.63,4.37-15.84,1.18-2.65-.91-6.24-2.7-9.59-3.91-6.91-2.52-8.69-2.79-14-4.57C104.48,242.42,99.14,239.84,97.52,236.78Z" style="fill:#ffa8a7"></path><path d="M96.92,187.16c-3.18.43-6.27,1.15-8.12,3.72s-3.39,6.2-1.54,16.16a153.5,153.5,0,0,0,5.66,20.54s7.4,3.17,15.27-4.86l-5.4-20.92S101.86,188.21,96.92,187.16Z" style="fill:#455a64"></path></g></g><g id="freepik--Dron--inject-35"><g id="freepik--dron--inject-35"><g id="freepik--Box--inject-35"><g id="freepik--back-box--inject-35"><polygon points="267.47 136.83 223.53 162.2 267.47 187.57 311.41 162.2 267.47 136.83" style="fill:#455a64"></polygon><polygon points="284.67 177.64 240.73 152.27 249.52 147.19 293.46 172.56 284.67 177.64" style="fill:#37474f"></polygon></g><g id="freepik--front-box--inject-35"><polygon points="223.53 162.2 223.53 202.79 267.47 228.16 267.47 187.57 223.53 162.2" style="fill:#263238"></polygon><polygon points="267.47 187.57 267.47 228.16 311.41 202.83 311.41 162.2 267.47 187.57" style="fill:#37474f"></polygon><polygon points="293.46 172.56 293.46 180.49 292.53 180.31 291.7 181.52 290.76 181.33 289.95 182.53 289.01 182.34 288.19 183.55 287.25 183.36 286.43 184.57 285.48 184.38 284.67 185.58 284.67 177.64 293.46 172.56" style="fill:#263238"></polygon><polygon points="267.47 187.57 268.34 226.57 300.52 209.08 267.47 228.16 267.47 187.57" style="fill:#455a64"></polygon><g style="opacity:0.8"><path d="M279.36,217.19a.23.23,0,0,1-.23-.24v-5.3a.23.23,0,0,1,.23-.24.24.24,0,0,1,.24.24V217A.24.24,0,0,1,279.36,217.19Z" style="fill:#e0e0e0"></path><path d="M278.67,213.49l-.09,0a.24.24,0,0,1-.13-.31l.85-1.95.93,1.09a.23.23,0,0,1,0,.33.25.25,0,0,1-.33,0l-.45-.52-.54,1.25A.25.25,0,0,1,278.67,213.49Z" style="fill:#e0e0e0"></path><path d="M281.55,215.94a.24.24,0,0,1-.24-.24v-5.3a.24.24,0,0,1,.48,0v5.3A.24.24,0,0,1,281.55,215.94Z" style="fill:#e0e0e0"></path><path d="M280.86,212.24l-.1,0a.23.23,0,0,1-.12-.31l.84-1.94.94,1.08a.23.23,0,0,1,0,.33.24.24,0,0,1-.34,0l-.44-.52-.55,1.26A.22.22,0,0,1,280.86,212.24Z" style="fill:#e0e0e0"></path></g><g style="opacity:0.8"><path d="M273.06,220.78a.58.58,0,0,1-.26-.06.63.63,0,0,1-.28-.57v-.65a.23.23,0,0,1,.23-.24.24.24,0,0,1,.24.24v.65a.24.24,0,0,0,0,.15s.08,0,.16,0a1.38,1.38,0,0,0,.44-1.07v-2.71a.23.23,0,0,1,.24-.23.23.23,0,0,1,.23.23v2.71a1.8,1.8,0,0,1-.67,1.48A.78.78,0,0,1,273.06,220.78Z" style="fill:#e0e0e0"></path><path d="M270.57,218.6v-.41a6.68,6.68,0,0,1,3-5.24,2,2,0,0,1,3.26,1.88V215ZM275,213a2.44,2.44,0,0,0-1.18.37,6.26,6.26,0,0,0-2.77,4.41l5.32-3.07a1.79,1.79,0,0,0-.73-1.55A1.38,1.38,0,0,0,275,213Z" style="fill:#e0e0e0"></path></g></g><polygon points="285.05 177.42 241.1 152.05 249.89 146.98 293.84 172.35 285.05 177.42" style="fill:#2ACA1C"></polygon><polygon points="293.84 172.35 293.83 180.04 292.9 179.86 292.08 181.06 291.14 180.88 290.33 182.08 289.39 181.89 288.56 183.1 287.62 182.91 286.8 184.12 285.86 183.93 285.05 185.13 285.05 177.42 293.84 172.35" style="fill:#2ACA1C"></polygon><polygon points="293.84 172.35 293.83 180.04 292.9 179.86 292.08 181.07 291.14 180.88 290.33 182.08 289.39 181.9 288.56 183.1 287.62 182.91 286.8 184.12 285.86 183.93 285.05 185.13 285.05 177.42 293.84 172.35" style="opacity:0.15"></polygon><polygon points="241.1 152.05 249.89 147.56 293.84 172.35 249.89 146.98 241.1 152.05" style="fill:#fff;opacity:0.5"></polygon></g><g id="freepik--dron--inject-35"><rect x="263.2" y="100.58" width="8.3" height="6.04" style="fill:#455a64"></rect><polygon points="271.5 106.61 276.71 101.21 276.71 97.61 271.5 100.62 271.5 106.61" style="fill:#37474f"></polygon><polygon points="263.2 106.61 258 101.21 258 97.61 263.2 100.62 263.2 106.61" style="fill:#37474f"></polygon><path d="M267.47,188a.47.47,0,0,1-.46-.46l-.11-84a.45.45,0,0,1,.45-.46h0a.45.45,0,0,1,.46.45l.12,84a.47.47,0,0,1-.46.46Z" style="fill:#ebebeb"></path><path d="M311.41,162.66a.47.47,0,0,1-.39-.22l-36.83-60.09a.46.46,0,1,1,.78-.48L311.8,162a.45.45,0,0,1-.15.63A.51.51,0,0,1,311.41,162.66Z" style="fill:#ebebeb"></path><path d="M223.37,162.66a.48.48,0,0,1-.24-.07A.45.45,0,0,1,223,162l36.83-60.09a.46.46,0,1,1,.78.48l-36.83,60.09A.47.47,0,0,1,223.37,162.66Z" style="fill:#ebebeb"></path><path d="M312,80.13c-3.13,0-4.12-20.29-4.12-20.29h8.24s-1,20.29-4.12,20.29" style="fill:#37474f"></path><path d="M309.11,58.16a6.42,6.42,0,0,1,5.82,0c1.61.92,1.61,2.43,0,3.36a6.42,6.42,0,0,1-5.82,0C307.5,60.59,307.5,59.08,309.11,58.16Z" style="fill:#455a64"></path><path d="M222.92,80.13c3.12,0,4.11-20.29,4.11-20.29H218.8s1,20.29,4.12,20.29" style="fill:#37474f"></path><path d="M225.83,58.16a6.42,6.42,0,0,0-5.82,0c-1.61.93-1.61,2.43,0,3.36a6.42,6.42,0,0,0,5.82,0C227.43,60.59,227.43,59.09,225.83,58.16Z" style="fill:#455a64"></path><polygon points="223.69 68.8 254.88 94.01 223.69 119.22 226.81 121.02 267.35 101.21 307.9 121.02 311.02 119.22 279.83 94.01 311.02 68.8 307.9 66.99 267.35 86.8 226.8 66.99 223.69 68.8" style="fill:#e0e0e0"></polygon><polygon points="226.81 117.42 267.35 94.01 307.9 117.42 311.02 115.62 279.83 86.8 311.02 65.19 307.9 63.39 267.35 79.6 226.8 63.39 223.69 65.19 254.88 86.8 223.69 115.62 226.81 117.42" style="fill:#f5f5f5"></polygon><polygon points="307.9 117.42 307.9 121.02 311.02 119.22 311.02 115.62 307.9 117.42" style="fill:#e0e0e0"></polygon><polygon points="267.35 94.01 267.35 101.21 307.9 121.02 307.9 117.42 267.35 94.01" style="fill:#ebebeb"></polygon><polygon points="223.69 65.19 254.88 86.8 249.98 90.66 223.69 68.8 223.69 65.19" style="fill:#ebebeb"></polygon><polygon points="279.83 86.8 284.73 90.66 311.02 68.8 311.02 65.19 279.83 86.8" style="fill:#e0e0e0"></polygon><rect x="261.12" y="83.51" width="12.47" height="6.59" rx="0.59" style="fill:#2ACA1C"></rect><polygon points="226.81 117.42 226.81 121.02 223.69 119.22 223.69 115.62 226.81 117.42" style="fill:#ebebeb"></polygon><path d="M311.48,135.09c-3.13,0-4.12-20.3-4.12-20.3h8.23s-1,20.3-4.11,20.3" style="fill:#37474f"></path><path d="M308.57,113.11a6.42,6.42,0,0,1,5.82,0c1.61.93,1.61,2.44,0,3.36a6.42,6.42,0,0,1-5.82,0C307,115.55,307,114,308.57,113.11Z" style="fill:#455a64"></path><path d="M223.23,135.09c3.13,0,4.12-20.3,4.12-20.3h-8.24s1,20.3,4.12,20.3" style="fill:#37474f"></path><path d="M226.14,113.11a6.42,6.42,0,0,0-5.82,0c-1.61.93-1.61,2.44,0,3.36a6.42,6.42,0,0,0,5.82,0C227.75,115.55,227.75,114,226.14,113.11Z" style="fill:#455a64"></path><path d="M327.54,104.55l-16.06,9.27-16.06-9.27C304.28,99.43,318.66,99.43,327.54,104.55Z" style="fill:#2ACA1C;opacity:0.30000000000000004"></path><path d="M327.54,123.09l-16.06-9.27,16.06-9.27C336.4,109.67,336.4,118,327.54,123.09Z" style="fill:#2ACA1C;opacity:0.1"></path><path d="M327.54,123.09c-8.88,5.12-23.26,5.12-32.12,0l16.06-9.27Z" style="fill:#2ACA1C;opacity:0.30000000000000004"></path><path d="M311.48,113.82l-16.06,9.27c-8.86-5.12-8.86-13.42,0-18.54Z" style="fill:#2ACA1C;opacity:0.1"></path><path d="M313.85,115v-1h-.78a3.76,3.76,0,0,0-3.18,0h-.78v1h0a1.18,1.18,0,0,0,.69,1,3.73,3.73,0,0,0,3.35,0A1.18,1.18,0,0,0,313.85,115Z" style="fill:#2ACA1C"></path><path d="M313.85,115v-1h-.78a3.76,3.76,0,0,0-3.18,0h-.78v1h0a1.18,1.18,0,0,0,.69,1,3.73,3.73,0,0,0,3.35,0A1.18,1.18,0,0,0,313.85,115Z" style="opacity:0.30000000000000004"></path><path d="M313.15,113a3.73,3.73,0,0,0-3.35,0,1,1,0,0,0,0,1.94,3.73,3.73,0,0,0,3.35,0A1,1,0,0,0,313.15,113Z" style="fill:#2ACA1C"></path><path d="M312.31,113.51a1.86,1.86,0,0,0-1.66,0c-.46.27-.46.7,0,1a1.8,1.8,0,0,0,1.66,0C312.77,114.21,312.77,113.78,312.31,113.51Z" style="fill:#455a64"></path><path d="M239.29,104.55l-16.06,9.27-16.06-9.27C216,99.43,230.41,99.43,239.29,104.55Z" style="fill:#2ACA1C;opacity:0.30000000000000004"></path><path d="M239.29,123.09l-16.06-9.27,16.06-9.27C248.15,109.67,248.15,118,239.29,123.09Z" style="fill:#2ACA1C;opacity:0.1"></path><path d="M239.29,123.09c-8.88,5.12-23.25,5.12-32.12,0l16.06-9.27Z" style="fill:#2ACA1C;opacity:0.30000000000000004"></path><path d="M223.23,113.82l-16.06,9.27c-8.86-5.12-8.86-13.42,0-18.54Z" style="fill:#2ACA1C;opacity:0.1"></path><path d="M225.6,115v-1h-.78a3.76,3.76,0,0,0-3.18,0h-.78v1h0a1.18,1.18,0,0,0,.7,1,3.73,3.73,0,0,0,3.35,0A1.18,1.18,0,0,0,225.6,115Z" style="fill:#2ACA1C"></path><path d="M225.6,115v-1h-.78a3.76,3.76,0,0,0-3.18,0h-.78v1h0a1.18,1.18,0,0,0,.7,1,3.73,3.73,0,0,0,3.35,0A1.18,1.18,0,0,0,225.6,115Z" style="opacity:0.30000000000000004"></path><path d="M224.91,113a3.73,3.73,0,0,0-3.35,0,1,1,0,0,0,0,1.94,3.73,3.73,0,0,0,3.35,0A1,1,0,0,0,224.91,113Z" style="fill:#2ACA1C"></path><path d="M224.06,113.51a1.86,1.86,0,0,0-1.66,0c-.46.27-.46.7,0,1a1.8,1.8,0,0,0,1.66,0C224.52,114.21,224.52,113.78,224.06,113.51Z" style="fill:#455a64"></path><path d="M328.08,49.55,312,58.82,296,49.55C304.83,44.43,319.2,44.43,328.08,49.55Z" style="fill:#2ACA1C;opacity:0.30000000000000004"></path><path d="M328.08,68.09,312,58.82l16.06-9.27C336.94,54.67,336.94,63,328.08,68.09Z" style="fill:#2ACA1C;opacity:0.1"></path><path d="M328.08,68.09c-8.88,5.12-23.25,5.12-32.12,0L312,58.82Z" style="fill:#2ACA1C;opacity:0.30000000000000004"></path><path d="M312,58.82,296,68.09c-8.86-5.12-8.86-13.42,0-18.54Z" style="fill:#2ACA1C;opacity:0.1"></path><path d="M314.39,60V59h-.78a3.76,3.76,0,0,0-3.18,0h-.78v1h0a1.18,1.18,0,0,0,.7,1,3.73,3.73,0,0,0,3.35,0A1.18,1.18,0,0,0,314.39,60Z" style="fill:#2ACA1C"></path><path d="M314.39,60V59h-.78a3.76,3.76,0,0,0-3.18,0h-.78v1h0a1.18,1.18,0,0,0,.7,1,3.73,3.73,0,0,0,3.35,0A1.18,1.18,0,0,0,314.39,60Z" style="opacity:0.30000000000000004"></path><path d="M313.7,58a3.67,3.67,0,0,0-3.35,0,1,1,0,0,0,0,1.93,3.67,3.67,0,0,0,3.35,0A1,1,0,0,0,313.7,58Z" style="fill:#2ACA1C"></path><path d="M312.85,58.51a1.86,1.86,0,0,0-1.66,0c-.46.27-.46.7,0,1a1.8,1.8,0,0,0,1.66,0C313.31,59.21,313.31,58.78,312.85,58.51Z" style="fill:#455a64"></path><path d="M239,49.55l-16.05,9.27-16.06-9.27C215.72,44.43,230.1,44.43,239,49.55Z" style="fill:#2ACA1C;opacity:0.30000000000000004"></path><path d="M239,68.09l-16.05-9.27L239,49.55C247.84,54.67,247.84,63,239,68.09Z" style="fill:#2ACA1C;opacity:0.1"></path><path d="M239,68.09c-8.87,5.12-23.25,5.12-32.11,0l16.06-9.27Z" style="fill:#2ACA1C;opacity:0.30000000000000004"></path><path d="M222.92,58.82l-16.06,9.27C198,63,198,54.67,206.86,49.55Z" style="fill:#2ACA1C;opacity:0.1"></path><path d="M225.29,60V59h-.78a3.76,3.76,0,0,0-3.18,0h-.78v1h0a1.18,1.18,0,0,0,.69,1,3.73,3.73,0,0,0,3.35,0A1.18,1.18,0,0,0,225.29,60Z" style="fill:#2ACA1C"></path><path d="M225.29,60V59h-.78a3.76,3.76,0,0,0-3.18,0h-.78v1h0a1.18,1.18,0,0,0,.69,1,3.73,3.73,0,0,0,3.35,0A1.18,1.18,0,0,0,225.29,60Z" style="opacity:0.30000000000000004"></path><path d="M224.59,58a3.67,3.67,0,0,0-3.35,0,1,1,0,0,0,0,1.93,3.67,3.67,0,0,0,3.35,0A1,1,0,0,0,224.59,58Z" style="fill:#2ACA1C"></path><path d="M223.75,58.51a1.89,1.89,0,0,0-1.67,0,.51.51,0,0,0,0,1,1.82,1.82,0,0,0,1.67,0C224.21,59.21,224.21,58.78,223.75,58.51Z" style="fill:#455a64"></path><path d="M268.69,86A3,3,0,0,0,266,86a.82.82,0,0,0,0,1.54,2.92,2.92,0,0,0,2.67,0A.82.82,0,0,0,268.69,86Z" style="fill:#fafafa"></path></g></g></g></svg>